#!OML:ASF X:\für Bonn\!DataBase\2005_08_11_Bastian_Final\c3d\Bastian.ASF
:FULLY-SPECIFIED
:DEGREES
46
root 1.01437 13.0114 0.51605 169.916 -5.75715 -174.765
lowerback 24.1152 -1.28846 1.42835
upperback 3.67858 -1.99313 0.901097
thorax -9.38164 -1.2971 0.857926
lowerneck -9.85457 -6.53874 -5.55239
upperneck -5.48162 -8.79984 10.3648
head 0.736021 -4.54879 4.00894
rclavicle 8.94531e-015 -5.1684e-015
rhumerus 74.7856 6.34756 14.4391
rradius 41.1619
rwrist -68.4398
rhand -44.4403 -4.26894
rfingers 7.12502
rthumb -17.245 -33.5238
lclavicle 8.94531e-015 -5.1684e-015
lhumerus 68.8388 -10.736 -8.89366
lradius 30.7949
lwrist 9.38815
lhand -43.1502 11.6004
lfingers 7.12502
lthumb -16.003 40.9594
rfemur -35.5045 -8.85737 24.3018
rtibia 99.7719
rfoot -41.0517 -6.55168
rtoes -7.55561
lfemur -34.9201 6.64255 -12.1783
ltibia 101.936
lfoot -39.446 -16.4181
ltoes -4.59342
47
root 1.01411 12.7543 0.542889 170.053 -5.67362 -174.862
lowerback 24.3873 -1.25298 1.4177
upperback 3.63222 -1.94689 0.879807
thorax -9.57723 -1.27497 0.837081
lowerneck -9.95405 -6.54508 -5.55465
upperneck -5.7001 -8.81589 10.3564
head 0.68189 -4.569 4.0062
rclavicle 1.20265e-014 -1.82882e-014
rhumerus 74.709 5.86567 14.6266
rradius 41.2246
rwrist -68.7396
rhand -44.4975 -4.17246
rfingers 7.12502
rthumb -17.3001 -33.4225
lclavicle 1.20265e-014 -1.82882e-014
lhumerus 68.6373 -10.1023 -8.49964
lradius 30.7918
lwrist 9.04124
lhand -43.1138 11.478
lfingers 7.12502
lthumb -15.968 40.8398
rfemur -37.2363 -9.27195 24.1571
rtibia 102.588
rfoot -41.8613 -6.31177
rtoes -7.3974
lfemur -36.5759 7.30986 -12.181
ltibia 104.733
lfoot -39.9223 -16.9015
ltoes -4.23145
48
root 1.01394 12.4904 0.569864 170.175 -5.60061 -174.976
lowerback 24.6871 -1.21248 1.36248
upperback 3.5815 -1.90349 0.88357
thorax -9.79027 -1.2524 0.871176
lowerneck -9.95759 -6.55448 -5.66213
upperneck -5.96883 -8.82525 10.4034
head 0.602786 -4.5867 4.04772
rclavicle -2.22142e-014 1.47101e-014
rhumerus 74.6193 5.29067 15.1321
rradius 41.3929
rwrist -69.3877
rhand -44.594 -4.02915
rfingers 7.12502
rthumb -17.393 -33.271
lclavicle -2.22142e-014 1.47101e-014
lhumerus 68.453 -9.48839 -8.70798
lradius 30.9275
lwrist 9.43022
lhand -43.1683 11.3676
lfingers 7.12502
lthumb -16.0204 40.7252
rfemur -38.9697 -9.76497 23.9755
rtibia 105.431
rfoot -42.6265 -6.01451
rtoes -7.21851
lfemur -38.2308 7.99824 -12.2047
ltibia 107.569
lfoot -40.2939 -17.3603
ltoes -4.12456
49
root 1.01351 12.2144 0.596032 170.292 -5.54268 -175.07
lowerback 24.9735 -1.18583 1.35237
upperback 3.55442 -1.87248 0.86717
thorax -9.97164 -1.23904 0.859774
lowerneck -10.0498 -6.55484 -5.70328
upperneck -6.23549 -8.83371 10.4498
head 0.536045 -4.60603 4.07362
rclavicle -9.93923e-017 -1.55052e-014
rhumerus 74.4592 4.5823 16.0139
rradius 41.6585
rwrist -70.3337
rhand -44.7349 -4.02271
rfingers 7.12502
rthumb -17.5285 -33.2525
lclavicle -9.93923e-017 -1.55052e-014
lhumerus 68.2972 -8.84364 -9.8337
lradius 31.2694
lwrist 10.6837
lhand -43.3318 11.3777
lfingers 7.12502
lthumb -16.1778 40.7226
rfemur -40.7607 -10.3875 23.8059
rtibia 108.312
rfoot -43.2836 -5.72026
rtoes -6.99136
lfemur -39.9354 8.75585 -12.1725
ltibia 110.478
lfoot -40.6061 -17.912
ltoes -3.97268
50
root 1.01345 11.9293 0.621554 170.397 -5.50103 -175.162
lowerback 25.276 -1.16416 1.346
upperback 3.51721 -1.84581 0.845789
thorax -10.1731 -1.2273 0.842569
lowerneck -10.1484 -6.56167 -5.71055
upperneck -6.45973 -8.85322 10.4654
head 0.481695 -4.62923 4.08061
rclavicle 8.74653e-015 -1.55052e-014
rhumerus 74.3086 3.96328 16.3282
rradius 41.7095
rwrist -70.6728
rhand -44.6254 -4.11404
rfingers 7.12502
rthumb -17.4232 -33.3532
lclavicle 8.74653e-015 -1.55052e-014
lhumerus 68.1396 -8.22163 -10.9146
lradius 31.5767
lwrist 11.839
lhand -43.4693 11.4173
lfingers 7.12502
lthumb -16.3102 40.7514
rfemur -42.593 -11.1145 23.6244
rtibia 111.214
rfoot -43.7599 -5.41766
rtoes -6.91894
lfemur -41.6937 9.5965 -12.1034
ltibia 113.456
lfoot -40.9332 -18.4158
ltoes -4.18741
51
root 1.01162 11.6504 0.646996 170.47 -5.45502 -175.229
lowerback 25.6362 -1.14383 1.3644
upperback 3.49198 -1.81614 0.841705
thorax -10.3914 -1.21668 0.831064
lowerneck -10.2759 -6.56233 -5.77963
upperneck -6.70401 -8.86105 10.5401
head 0.431357 -4.6471 4.12049
rclavicle 1.86858e-014 -1.43125e-014
rhumerus 74.1149 3.31065 16.9313
rradius 41.8398
rwrist -71.1581
rhand -44.619 -4.23944
rfingers 7.12502
rthumb -17.4171 -33.4791
lclavicle 1.86858e-014 -1.43125e-014
lhumerus 67.9458 -7.59351 -11.9803
lradius 31.8556
lwrist 13.0071
lhand -43.6451 11.4653
lfingers 7.12502
lthumb -16.4795 40.7854
rfemur -44.3323 -11.9314 23.4598
rtibia 114.032
rfoot -44.0977 -5.12999
rtoes -7.05009
lfemur -43.3569 10.5413 -11.9836
ltibia 116.376
lfoot -41.4015 -18.7877
ltoes -5.33503
52
root 1.00927 11.379 0.671614 170.538 -5.3992 -175.281
lowerback 26.0513 -1.11741 1.38977
upperback 3.44394 -1.77231 0.846343
thorax -10.6642 -1.19867 0.82255
lowerneck -10.4037 -6.57571 -5.83438
upperneck -6.92054 -8.88591 10.5833
head 0.388979 -4.67195 4.14495
rclavicle 6.41081e-015 2.78299e-015
rhumerus 73.8901 2.69931 17.465
rradius 41.9318
rwrist -71.4787
rhand -44.5109 -4.41893
rfingers 7.12502
rthumb -17.3129 -33.6678
lclavicle 6.41081e-015 2.78299e-015
lhumerus 67.7242 -7.00231 -13.0933
lradius 32.1389
lwrist 14.1197
lhand -43.832 11.5628
lfingers 7.12502
lthumb -16.6594 40.8679
rfemur -46.011 -12.8297 23.3086
rtibia 116.754
rfoot -44.3131 -4.83953
rtoes -7.15578
lfemur -44.9403 11.585 -11.8302
ltibia 119.2
lfoot -41.8913 -19.216
ltoes -6.25577
53
root 1.00695 11.0998 0.697288 170.602 -5.3543 -175.346
lowerback 26.4667 -1.08788 1.39423
upperback 3.41075 -1.73298 0.8502
thorax -10.9196 -1.18309 0.826025
lowerneck -10.5745 -6.58276 -5.90112
upperneck -7.12786 -8.90332 10.6649
head 0.359242 -4.69306 4.18415
rclavicle 2.21645e-014 -2.8625e-014
rhumerus 73.7083 2.19193 17.6456
rradius 41.8964
rwrist -71.3368
rhand -44.3795 -4.69877
rfingers 7.12502
rthumb -17.1865 -33.9587
lclavicle 2.21645e-014 -2.8625e-014
lhumerus 67.4732 -6.46517 -14.0764
lradius 32.3864
lwrist 15.063
lhand -44.1003 11.7244
lfingers 7.12502
lthumb -16.9177 41.0076
rfemur -47.73 -13.8399 23.1636
rtibia 119.478
rfoot -44.5145 -4.73133
rtoes -7.58123
lfemur -46.5501 12.7314 -11.6658
ltibia 121.995
lfoot -42.3455 -19.8489
ltoes -6.36881
